<mxfile host="app.diagrams.net" modified="2020-08-31T08:03:54.596Z" agent="5.0 (Macintosh; Intel Mac OS X 10_14_4) AppleWebKit/537.36 (KHTML, like Gecko) Chrome/84.0.4147.105 Safari/537.36" etag="JHmgtn5rXnEklrVKC82y" version="13.6.5" type="github">
  <diagram id="UGhOaX2AKdgDgqAa2PCW" name="Page-1">
    <mxGraphModel dx="2365" dy="1288" grid="1" gridSize="10" guides="1" tooltips="1" connect="1" arrows="1" fold="1" page="1" pageScale="1" pageWidth="827" pageHeight="1169" math="0" shadow="0">
      <root>
        <mxCell id="0" />
        <mxCell id="1" parent="0" />
        <mxCell id="9O_hsrOdtYKGC5B46HUJ-161" style="edgeStyle=orthogonalEdgeStyle;rounded=0;orthogonalLoop=1;jettySize=auto;html=1;exitX=0;exitY=0.5;exitDx=0;exitDy=0;entryX=1;entryY=0.5;entryDx=0;entryDy=0;" edge="1" parent="1" source="9O_hsrOdtYKGC5B46HUJ-43" target="9O_hsrOdtYKGC5B46HUJ-150">
          <mxGeometry relative="1" as="geometry" />
        </mxCell>
        <mxCell id="9O_hsrOdtYKGC5B46HUJ-162" style="edgeStyle=orthogonalEdgeStyle;rounded=0;orthogonalLoop=1;jettySize=auto;html=1;exitX=0;exitY=0.5;exitDx=0;exitDy=0;" edge="1" parent="1" source="9O_hsrOdtYKGC5B46HUJ-150" target="9O_hsrOdtYKGC5B46HUJ-5">
          <mxGeometry relative="1" as="geometry" />
        </mxCell>
        <mxCell id="9O_hsrOdtYKGC5B46HUJ-164" style="edgeStyle=orthogonalEdgeStyle;rounded=0;orthogonalLoop=1;jettySize=auto;html=1;exitX=0.5;exitY=0;exitDx=0;exitDy=0;entryX=0.5;entryY=1;entryDx=0;entryDy=0;" edge="1" parent="1" source="9O_hsrOdtYKGC5B46HUJ-94" target="9O_hsrOdtYKGC5B46HUJ-1">
          <mxGeometry relative="1" as="geometry" />
        </mxCell>
        <mxCell id="9O_hsrOdtYKGC5B46HUJ-163" style="edgeStyle=orthogonalEdgeStyle;rounded=0;orthogonalLoop=1;jettySize=auto;html=1;exitX=0;exitY=0.5;exitDx=0;exitDy=0;entryX=1;entryY=0.5;entryDx=0;entryDy=0;" edge="1" parent="1" source="9O_hsrOdtYKGC5B46HUJ-56" target="9O_hsrOdtYKGC5B46HUJ-98">
          <mxGeometry relative="1" as="geometry" />
        </mxCell>
        <mxCell id="9O_hsrOdtYKGC5B46HUJ-166" style="edgeStyle=orthogonalEdgeStyle;rounded=0;orthogonalLoop=1;jettySize=auto;html=1;exitX=0.5;exitY=0;exitDx=0;exitDy=0;entryX=0.5;entryY=1;entryDx=0;entryDy=0;" edge="1" parent="1" source="9O_hsrOdtYKGC5B46HUJ-107" target="9O_hsrOdtYKGC5B46HUJ-39">
          <mxGeometry relative="1" as="geometry">
            <mxPoint x="1840" y="600" as="targetPoint" />
          </mxGeometry>
        </mxCell>
        <mxCell id="9O_hsrOdtYKGC5B46HUJ-165" style="edgeStyle=orthogonalEdgeStyle;rounded=0;orthogonalLoop=1;jettySize=auto;html=1;exitX=1;exitY=0.5;exitDx=0;exitDy=0;entryX=0.5;entryY=1;entryDx=0;entryDy=0;" edge="1" parent="1" source="9O_hsrOdtYKGC5B46HUJ-56" target="9O_hsrOdtYKGC5B46HUJ-107">
          <mxGeometry relative="1" as="geometry" />
        </mxCell>
        <mxCell id="9O_hsrOdtYKGC5B46HUJ-167" style="edgeStyle=orthogonalEdgeStyle;rounded=0;orthogonalLoop=1;jettySize=auto;html=1;exitX=0.5;exitY=0;exitDx=0;exitDy=0;entryX=0.483;entryY=1.033;entryDx=0;entryDy=0;entryPerimeter=0;" edge="1" parent="1" source="9O_hsrOdtYKGC5B46HUJ-81" target="9O_hsrOdtYKGC5B46HUJ-143">
          <mxGeometry relative="1" as="geometry" />
        </mxCell>
        <mxCell id="9O_hsrOdtYKGC5B46HUJ-168" style="edgeStyle=orthogonalEdgeStyle;rounded=0;orthogonalLoop=1;jettySize=auto;html=1;exitX=0.5;exitY=0;exitDx=0;exitDy=0;entryX=0;entryY=0.5;entryDx=0;entryDy=0;" edge="1" parent="1" source="9O_hsrOdtYKGC5B46HUJ-133" target="9O_hsrOdtYKGC5B46HUJ-8">
          <mxGeometry relative="1" as="geometry" />
        </mxCell>
        <mxCell id="9O_hsrOdtYKGC5B46HUJ-171" style="edgeStyle=orthogonalEdgeStyle;rounded=0;orthogonalLoop=1;jettySize=auto;html=1;exitX=0.5;exitY=0;exitDx=0;exitDy=0;entryX=0;entryY=0.5;entryDx=0;entryDy=0;" edge="1" parent="1" source="9O_hsrOdtYKGC5B46HUJ-65" target="9O_hsrOdtYKGC5B46HUJ-2">
          <mxGeometry relative="1" as="geometry" />
        </mxCell>
        <mxCell id="9O_hsrOdtYKGC5B46HUJ-170" style="edgeStyle=orthogonalEdgeStyle;rounded=0;orthogonalLoop=1;jettySize=auto;html=1;exitX=0.5;exitY=0;exitDx=0;exitDy=0;entryX=0.456;entryY=1;entryDx=0;entryDy=0;entryPerimeter=0;" edge="1" parent="1" source="9O_hsrOdtYKGC5B46HUJ-120" target="9O_hsrOdtYKGC5B46HUJ-75">
          <mxGeometry relative="1" as="geometry" />
        </mxCell>
        <mxCell id="9O_hsrOdtYKGC5B46HUJ-169" style="edgeStyle=orthogonalEdgeStyle;rounded=0;orthogonalLoop=1;jettySize=auto;html=1;exitX=0;exitY=0.5;exitDx=0;exitDy=0;entryX=1;entryY=0.5;entryDx=0;entryDy=0;" edge="1" parent="1" source="9O_hsrOdtYKGC5B46HUJ-85" target="9O_hsrOdtYKGC5B46HUJ-124">
          <mxGeometry relative="1" as="geometry" />
        </mxCell>
        <mxCell id="9O_hsrOdtYKGC5B46HUJ-185" style="edgeStyle=orthogonalEdgeStyle;rounded=0;orthogonalLoop=1;jettySize=auto;html=1;exitX=0.5;exitY=1;exitDx=0;exitDy=0;entryX=0.5;entryY=0;entryDx=0;entryDy=0;" edge="1" parent="1" source="9O_hsrOdtYKGC5B46HUJ-172" target="9O_hsrOdtYKGC5B46HUJ-1">
          <mxGeometry relative="1" as="geometry" />
        </mxCell>
        <mxCell id="9O_hsrOdtYKGC5B46HUJ-1" value="用户表" style="shape=table;startSize=30;container=1;collapsible=1;childLayout=tableLayout;fixedRows=1;rowLines=0;fontStyle=1;align=center;resizeLast=1;" vertex="1" parent="1">
          <mxGeometry x="1190" y="390" width="180" height="190" as="geometry" />
        </mxCell>
        <mxCell id="9O_hsrOdtYKGC5B46HUJ-2" value="" style="shape=partialRectangle;collapsible=0;dropTarget=0;pointerEvents=0;fillColor=none;top=0;left=0;bottom=1;right=0;points=[[0,0.5],[1,0.5]];portConstraint=eastwest;" vertex="1" parent="9O_hsrOdtYKGC5B46HUJ-1">
          <mxGeometry y="30" width="180" height="30" as="geometry" />
        </mxCell>
        <mxCell id="9O_hsrOdtYKGC5B46HUJ-3" value="PK" style="shape=partialRectangle;connectable=0;fillColor=none;top=0;left=0;bottom=0;right=0;fontStyle=1;overflow=hidden;" vertex="1" parent="9O_hsrOdtYKGC5B46HUJ-2">
          <mxGeometry width="30" height="30" as="geometry" />
        </mxCell>
        <mxCell id="9O_hsrOdtYKGC5B46HUJ-4" value="id" style="shape=partialRectangle;connectable=0;fillColor=none;top=0;left=0;bottom=0;right=0;align=left;spacingLeft=6;fontStyle=5;overflow=hidden;" vertex="1" parent="9O_hsrOdtYKGC5B46HUJ-2">
          <mxGeometry x="30" width="150" height="30" as="geometry" />
        </mxCell>
        <mxCell id="9O_hsrOdtYKGC5B46HUJ-5" value="" style="shape=partialRectangle;collapsible=0;dropTarget=0;pointerEvents=0;fillColor=none;top=0;left=0;bottom=0;right=0;points=[[0,0.5],[1,0.5]];portConstraint=eastwest;" vertex="1" parent="9O_hsrOdtYKGC5B46HUJ-1">
          <mxGeometry y="60" width="180" height="30" as="geometry" />
        </mxCell>
        <mxCell id="9O_hsrOdtYKGC5B46HUJ-6" value="" style="shape=partialRectangle;connectable=0;fillColor=none;top=0;left=0;bottom=0;right=0;editable=1;overflow=hidden;" vertex="1" parent="9O_hsrOdtYKGC5B46HUJ-5">
          <mxGeometry width="30" height="30" as="geometry" />
        </mxCell>
        <mxCell id="9O_hsrOdtYKGC5B46HUJ-7" value="用户名" style="shape=partialRectangle;connectable=0;fillColor=none;top=0;left=0;bottom=0;right=0;align=left;spacingLeft=6;overflow=hidden;" vertex="1" parent="9O_hsrOdtYKGC5B46HUJ-5">
          <mxGeometry x="30" width="150" height="30" as="geometry" />
        </mxCell>
        <mxCell id="9O_hsrOdtYKGC5B46HUJ-8" value="" style="shape=partialRectangle;collapsible=0;dropTarget=0;pointerEvents=0;fillColor=none;top=0;left=0;bottom=0;right=0;points=[[0,0.5],[1,0.5]];portConstraint=eastwest;" vertex="1" parent="9O_hsrOdtYKGC5B46HUJ-1">
          <mxGeometry y="90" width="180" height="30" as="geometry" />
        </mxCell>
        <mxCell id="9O_hsrOdtYKGC5B46HUJ-9" value="" style="shape=partialRectangle;connectable=0;fillColor=none;top=0;left=0;bottom=0;right=0;editable=1;overflow=hidden;" vertex="1" parent="9O_hsrOdtYKGC5B46HUJ-8">
          <mxGeometry width="30" height="30" as="geometry" />
        </mxCell>
        <mxCell id="9O_hsrOdtYKGC5B46HUJ-10" value="账号" style="shape=partialRectangle;connectable=0;fillColor=none;top=0;left=0;bottom=0;right=0;align=left;spacingLeft=6;overflow=hidden;" vertex="1" parent="9O_hsrOdtYKGC5B46HUJ-8">
          <mxGeometry x="30" width="150" height="30" as="geometry" />
        </mxCell>
        <mxCell id="9O_hsrOdtYKGC5B46HUJ-11" value="" style="shape=partialRectangle;collapsible=0;dropTarget=0;pointerEvents=0;fillColor=none;top=0;left=0;bottom=0;right=0;points=[[0,0.5],[1,0.5]];portConstraint=eastwest;" vertex="1" parent="9O_hsrOdtYKGC5B46HUJ-1">
          <mxGeometry y="120" width="180" height="30" as="geometry" />
        </mxCell>
        <mxCell id="9O_hsrOdtYKGC5B46HUJ-12" value="" style="shape=partialRectangle;connectable=0;fillColor=none;top=0;left=0;bottom=0;right=0;editable=1;overflow=hidden;" vertex="1" parent="9O_hsrOdtYKGC5B46HUJ-11">
          <mxGeometry width="30" height="30" as="geometry" />
        </mxCell>
        <mxCell id="9O_hsrOdtYKGC5B46HUJ-13" value="密码" style="shape=partialRectangle;connectable=0;fillColor=none;top=0;left=0;bottom=0;right=0;align=left;spacingLeft=6;overflow=hidden;" vertex="1" parent="9O_hsrOdtYKGC5B46HUJ-11">
          <mxGeometry x="30" width="150" height="30" as="geometry" />
        </mxCell>
        <mxCell id="9O_hsrOdtYKGC5B46HUJ-36" value="" style="shape=partialRectangle;collapsible=0;dropTarget=0;pointerEvents=0;fillColor=none;top=0;left=0;bottom=0;right=0;points=[[0,0.5],[1,0.5]];portConstraint=eastwest;" vertex="1" parent="9O_hsrOdtYKGC5B46HUJ-1">
          <mxGeometry y="150" width="180" height="30" as="geometry" />
        </mxCell>
        <mxCell id="9O_hsrOdtYKGC5B46HUJ-37" value="" style="shape=partialRectangle;connectable=0;fillColor=none;top=0;left=0;bottom=0;right=0;editable=1;overflow=hidden;" vertex="1" parent="9O_hsrOdtYKGC5B46HUJ-36">
          <mxGeometry width="30" height="30" as="geometry" />
        </mxCell>
        <mxCell id="9O_hsrOdtYKGC5B46HUJ-38" value="..." style="shape=partialRectangle;connectable=0;fillColor=none;top=0;left=0;bottom=0;right=0;align=left;spacingLeft=6;overflow=hidden;" vertex="1" parent="9O_hsrOdtYKGC5B46HUJ-36">
          <mxGeometry x="30" width="150" height="30" as="geometry" />
        </mxCell>
        <mxCell id="9O_hsrOdtYKGC5B46HUJ-146" value="用户和角色关系表" style="shape=table;startSize=30;container=1;collapsible=1;childLayout=tableLayout;fixedRows=1;rowLines=0;fontStyle=1;align=center;resizeLast=1;" vertex="1" parent="1">
          <mxGeometry x="1470" y="390" width="180" height="150" as="geometry" />
        </mxCell>
        <mxCell id="9O_hsrOdtYKGC5B46HUJ-147" value="" style="shape=partialRectangle;collapsible=0;dropTarget=0;pointerEvents=0;fillColor=none;top=0;left=0;bottom=1;right=0;points=[[0,0.5],[1,0.5]];portConstraint=eastwest;" vertex="1" parent="9O_hsrOdtYKGC5B46HUJ-146">
          <mxGeometry y="30" width="180" height="30" as="geometry" />
        </mxCell>
        <mxCell id="9O_hsrOdtYKGC5B46HUJ-148" value="PK" style="shape=partialRectangle;connectable=0;fillColor=none;top=0;left=0;bottom=0;right=0;fontStyle=1;overflow=hidden;" vertex="1" parent="9O_hsrOdtYKGC5B46HUJ-147">
          <mxGeometry width="30" height="30" as="geometry" />
        </mxCell>
        <mxCell id="9O_hsrOdtYKGC5B46HUJ-149" value="id" style="shape=partialRectangle;connectable=0;fillColor=none;top=0;left=0;bottom=0;right=0;align=left;spacingLeft=6;fontStyle=5;overflow=hidden;" vertex="1" parent="9O_hsrOdtYKGC5B46HUJ-147">
          <mxGeometry x="30" width="150" height="30" as="geometry" />
        </mxCell>
        <mxCell id="9O_hsrOdtYKGC5B46HUJ-150" value="" style="shape=partialRectangle;collapsible=0;dropTarget=0;pointerEvents=0;fillColor=none;top=0;left=0;bottom=0;right=0;points=[[0,0.5],[1,0.5]];portConstraint=eastwest;" vertex="1" parent="9O_hsrOdtYKGC5B46HUJ-146">
          <mxGeometry y="60" width="180" height="30" as="geometry" />
        </mxCell>
        <mxCell id="9O_hsrOdtYKGC5B46HUJ-151" value="" style="shape=partialRectangle;connectable=0;fillColor=none;top=0;left=0;bottom=0;right=0;editable=1;overflow=hidden;" vertex="1" parent="9O_hsrOdtYKGC5B46HUJ-150">
          <mxGeometry width="30" height="30" as="geometry" />
        </mxCell>
        <mxCell id="9O_hsrOdtYKGC5B46HUJ-152" value="用户id" style="shape=partialRectangle;connectable=0;fillColor=none;top=0;left=0;bottom=0;right=0;align=left;spacingLeft=6;overflow=hidden;" vertex="1" parent="9O_hsrOdtYKGC5B46HUJ-150">
          <mxGeometry x="30" width="150" height="30" as="geometry" />
        </mxCell>
        <mxCell id="9O_hsrOdtYKGC5B46HUJ-153" value="" style="shape=partialRectangle;collapsible=0;dropTarget=0;pointerEvents=0;fillColor=none;top=0;left=0;bottom=0;right=0;points=[[0,0.5],[1,0.5]];portConstraint=eastwest;" vertex="1" parent="9O_hsrOdtYKGC5B46HUJ-146">
          <mxGeometry y="90" width="180" height="30" as="geometry" />
        </mxCell>
        <mxCell id="9O_hsrOdtYKGC5B46HUJ-154" value="FK" style="shape=partialRectangle;connectable=0;fillColor=none;top=0;left=0;bottom=0;right=0;editable=1;overflow=hidden;" vertex="1" parent="9O_hsrOdtYKGC5B46HUJ-153">
          <mxGeometry width="30" height="30" as="geometry" />
        </mxCell>
        <mxCell id="9O_hsrOdtYKGC5B46HUJ-155" value="角色id" style="shape=partialRectangle;connectable=0;fillColor=none;top=0;left=0;bottom=0;right=0;align=left;spacingLeft=6;overflow=hidden;" vertex="1" parent="9O_hsrOdtYKGC5B46HUJ-153">
          <mxGeometry x="30" width="150" height="30" as="geometry" />
        </mxCell>
        <mxCell id="9O_hsrOdtYKGC5B46HUJ-156" value="" style="shape=partialRectangle;collapsible=0;dropTarget=0;pointerEvents=0;fillColor=none;top=0;left=0;bottom=0;right=0;points=[[0,0.5],[1,0.5]];portConstraint=eastwest;" vertex="1" parent="9O_hsrOdtYKGC5B46HUJ-146">
          <mxGeometry y="120" width="180" height="30" as="geometry" />
        </mxCell>
        <mxCell id="9O_hsrOdtYKGC5B46HUJ-157" value="" style="shape=partialRectangle;connectable=0;fillColor=none;top=0;left=0;bottom=0;right=0;editable=1;overflow=hidden;" vertex="1" parent="9O_hsrOdtYKGC5B46HUJ-156">
          <mxGeometry width="30" height="30" as="geometry" />
        </mxCell>
        <mxCell id="9O_hsrOdtYKGC5B46HUJ-158" value="..." style="shape=partialRectangle;connectable=0;fillColor=none;top=0;left=0;bottom=0;right=0;align=left;spacingLeft=6;overflow=hidden;" vertex="1" parent="9O_hsrOdtYKGC5B46HUJ-156">
          <mxGeometry x="30" width="150" height="30" as="geometry" />
        </mxCell>
        <mxCell id="9O_hsrOdtYKGC5B46HUJ-39" value="角色表" style="shape=table;startSize=30;container=1;collapsible=1;childLayout=tableLayout;fixedRows=1;rowLines=0;fontStyle=1;align=center;resizeLast=1;" vertex="1" parent="1">
          <mxGeometry x="1750" y="390" width="180" height="160" as="geometry" />
        </mxCell>
        <mxCell id="9O_hsrOdtYKGC5B46HUJ-40" value="" style="shape=partialRectangle;collapsible=0;dropTarget=0;pointerEvents=0;fillColor=none;top=0;left=0;bottom=1;right=0;points=[[0,0.5],[1,0.5]];portConstraint=eastwest;" vertex="1" parent="9O_hsrOdtYKGC5B46HUJ-39">
          <mxGeometry y="30" width="180" height="30" as="geometry" />
        </mxCell>
        <mxCell id="9O_hsrOdtYKGC5B46HUJ-41" value="PK" style="shape=partialRectangle;connectable=0;fillColor=none;top=0;left=0;bottom=0;right=0;fontStyle=1;overflow=hidden;" vertex="1" parent="9O_hsrOdtYKGC5B46HUJ-40">
          <mxGeometry width="30" height="30" as="geometry" />
        </mxCell>
        <mxCell id="9O_hsrOdtYKGC5B46HUJ-42" value="id" style="shape=partialRectangle;connectable=0;fillColor=none;top=0;left=0;bottom=0;right=0;align=left;spacingLeft=6;fontStyle=5;overflow=hidden;" vertex="1" parent="9O_hsrOdtYKGC5B46HUJ-40">
          <mxGeometry x="30" width="150" height="30" as="geometry" />
        </mxCell>
        <mxCell id="9O_hsrOdtYKGC5B46HUJ-43" value="" style="shape=partialRectangle;collapsible=0;dropTarget=0;pointerEvents=0;fillColor=none;top=0;left=0;bottom=0;right=0;points=[[0,0.5],[1,0.5]];portConstraint=eastwest;" vertex="1" parent="9O_hsrOdtYKGC5B46HUJ-39">
          <mxGeometry y="60" width="180" height="30" as="geometry" />
        </mxCell>
        <mxCell id="9O_hsrOdtYKGC5B46HUJ-44" value="" style="shape=partialRectangle;connectable=0;fillColor=none;top=0;left=0;bottom=0;right=0;editable=1;overflow=hidden;" vertex="1" parent="9O_hsrOdtYKGC5B46HUJ-43">
          <mxGeometry width="30" height="30" as="geometry" />
        </mxCell>
        <mxCell id="9O_hsrOdtYKGC5B46HUJ-45" value="名称" style="shape=partialRectangle;connectable=0;fillColor=none;top=0;left=0;bottom=0;right=0;align=left;spacingLeft=6;overflow=hidden;" vertex="1" parent="9O_hsrOdtYKGC5B46HUJ-43">
          <mxGeometry x="30" width="150" height="30" as="geometry" />
        </mxCell>
        <mxCell id="9O_hsrOdtYKGC5B46HUJ-46" value="" style="shape=partialRectangle;collapsible=0;dropTarget=0;pointerEvents=0;fillColor=none;top=0;left=0;bottom=0;right=0;points=[[0,0.5],[1,0.5]];portConstraint=eastwest;" vertex="1" parent="9O_hsrOdtYKGC5B46HUJ-39">
          <mxGeometry y="90" width="180" height="30" as="geometry" />
        </mxCell>
        <mxCell id="9O_hsrOdtYKGC5B46HUJ-47" value="" style="shape=partialRectangle;connectable=0;fillColor=none;top=0;left=0;bottom=0;right=0;editable=1;overflow=hidden;" vertex="1" parent="9O_hsrOdtYKGC5B46HUJ-46">
          <mxGeometry width="30" height="30" as="geometry" />
        </mxCell>
        <mxCell id="9O_hsrOdtYKGC5B46HUJ-48" value="显示名称" style="shape=partialRectangle;connectable=0;fillColor=none;top=0;left=0;bottom=0;right=0;align=left;spacingLeft=6;overflow=hidden;" vertex="1" parent="9O_hsrOdtYKGC5B46HUJ-46">
          <mxGeometry x="30" width="150" height="30" as="geometry" />
        </mxCell>
        <mxCell id="9O_hsrOdtYKGC5B46HUJ-49" value="" style="shape=partialRectangle;collapsible=0;dropTarget=0;pointerEvents=0;fillColor=none;top=0;left=0;bottom=0;right=0;points=[[0,0.5],[1,0.5]];portConstraint=eastwest;" vertex="1" parent="9O_hsrOdtYKGC5B46HUJ-39">
          <mxGeometry y="120" width="180" height="30" as="geometry" />
        </mxCell>
        <mxCell id="9O_hsrOdtYKGC5B46HUJ-50" value="" style="shape=partialRectangle;connectable=0;fillColor=none;top=0;left=0;bottom=0;right=0;editable=1;overflow=hidden;" vertex="1" parent="9O_hsrOdtYKGC5B46HUJ-49">
          <mxGeometry width="30" height="30" as="geometry" />
        </mxCell>
        <mxCell id="9O_hsrOdtYKGC5B46HUJ-51" value="..." style="shape=partialRectangle;connectable=0;fillColor=none;top=0;left=0;bottom=0;right=0;align=left;spacingLeft=6;overflow=hidden;" vertex="1" parent="9O_hsrOdtYKGC5B46HUJ-49">
          <mxGeometry x="30" width="150" height="30" as="geometry" />
        </mxCell>
        <mxCell id="9O_hsrOdtYKGC5B46HUJ-133" value="用户和变电站关系表" style="shape=table;startSize=30;container=1;collapsible=1;childLayout=tableLayout;fixedRows=1;rowLines=0;fontStyle=1;align=center;resizeLast=1;" vertex="1" parent="1">
          <mxGeometry x="827" y="535" width="180" height="150" as="geometry" />
        </mxCell>
        <mxCell id="9O_hsrOdtYKGC5B46HUJ-134" value="" style="shape=partialRectangle;collapsible=0;dropTarget=0;pointerEvents=0;fillColor=none;top=0;left=0;bottom=1;right=0;points=[[0,0.5],[1,0.5]];portConstraint=eastwest;" vertex="1" parent="9O_hsrOdtYKGC5B46HUJ-133">
          <mxGeometry y="30" width="180" height="30" as="geometry" />
        </mxCell>
        <mxCell id="9O_hsrOdtYKGC5B46HUJ-135" value="PK" style="shape=partialRectangle;connectable=0;fillColor=none;top=0;left=0;bottom=0;right=0;fontStyle=1;overflow=hidden;" vertex="1" parent="9O_hsrOdtYKGC5B46HUJ-134">
          <mxGeometry width="30" height="30" as="geometry" />
        </mxCell>
        <mxCell id="9O_hsrOdtYKGC5B46HUJ-136" value="id" style="shape=partialRectangle;connectable=0;fillColor=none;top=0;left=0;bottom=0;right=0;align=left;spacingLeft=6;fontStyle=5;overflow=hidden;" vertex="1" parent="9O_hsrOdtYKGC5B46HUJ-134">
          <mxGeometry x="30" width="150" height="30" as="geometry" />
        </mxCell>
        <mxCell id="9O_hsrOdtYKGC5B46HUJ-137" value="" style="shape=partialRectangle;collapsible=0;dropTarget=0;pointerEvents=0;fillColor=none;top=0;left=0;bottom=0;right=0;points=[[0,0.5],[1,0.5]];portConstraint=eastwest;" vertex="1" parent="9O_hsrOdtYKGC5B46HUJ-133">
          <mxGeometry y="60" width="180" height="30" as="geometry" />
        </mxCell>
        <mxCell id="9O_hsrOdtYKGC5B46HUJ-138" value="" style="shape=partialRectangle;connectable=0;fillColor=none;top=0;left=0;bottom=0;right=0;editable=1;overflow=hidden;" vertex="1" parent="9O_hsrOdtYKGC5B46HUJ-137">
          <mxGeometry width="30" height="30" as="geometry" />
        </mxCell>
        <mxCell id="9O_hsrOdtYKGC5B46HUJ-139" value="用户id" style="shape=partialRectangle;connectable=0;fillColor=none;top=0;left=0;bottom=0;right=0;align=left;spacingLeft=6;overflow=hidden;" vertex="1" parent="9O_hsrOdtYKGC5B46HUJ-137">
          <mxGeometry x="30" width="150" height="30" as="geometry" />
        </mxCell>
        <mxCell id="9O_hsrOdtYKGC5B46HUJ-140" value="" style="shape=partialRectangle;collapsible=0;dropTarget=0;pointerEvents=0;fillColor=none;top=0;left=0;bottom=0;right=0;points=[[0,0.5],[1,0.5]];portConstraint=eastwest;" vertex="1" parent="9O_hsrOdtYKGC5B46HUJ-133">
          <mxGeometry y="90" width="180" height="30" as="geometry" />
        </mxCell>
        <mxCell id="9O_hsrOdtYKGC5B46HUJ-141" value="FK" style="shape=partialRectangle;connectable=0;fillColor=none;top=0;left=0;bottom=0;right=0;editable=1;overflow=hidden;" vertex="1" parent="9O_hsrOdtYKGC5B46HUJ-140">
          <mxGeometry width="30" height="30" as="geometry" />
        </mxCell>
        <mxCell id="9O_hsrOdtYKGC5B46HUJ-142" value="变电站id" style="shape=partialRectangle;connectable=0;fillColor=none;top=0;left=0;bottom=0;right=0;align=left;spacingLeft=6;overflow=hidden;" vertex="1" parent="9O_hsrOdtYKGC5B46HUJ-140">
          <mxGeometry x="30" width="150" height="30" as="geometry" />
        </mxCell>
        <mxCell id="9O_hsrOdtYKGC5B46HUJ-143" value="" style="shape=partialRectangle;collapsible=0;dropTarget=0;pointerEvents=0;fillColor=none;top=0;left=0;bottom=0;right=0;points=[[0,0.5],[1,0.5]];portConstraint=eastwest;" vertex="1" parent="9O_hsrOdtYKGC5B46HUJ-133">
          <mxGeometry y="120" width="180" height="30" as="geometry" />
        </mxCell>
        <mxCell id="9O_hsrOdtYKGC5B46HUJ-144" value="" style="shape=partialRectangle;connectable=0;fillColor=none;top=0;left=0;bottom=0;right=0;editable=1;overflow=hidden;" vertex="1" parent="9O_hsrOdtYKGC5B46HUJ-143">
          <mxGeometry width="30" height="30" as="geometry" />
        </mxCell>
        <mxCell id="9O_hsrOdtYKGC5B46HUJ-145" value="..." style="shape=partialRectangle;connectable=0;fillColor=none;top=0;left=0;bottom=0;right=0;align=left;spacingLeft=6;overflow=hidden;" vertex="1" parent="9O_hsrOdtYKGC5B46HUJ-143">
          <mxGeometry x="30" width="150" height="30" as="geometry" />
        </mxCell>
        <mxCell id="9O_hsrOdtYKGC5B46HUJ-172" value="组织结构表" style="shape=table;startSize=30;container=1;collapsible=1;childLayout=tableLayout;fixedRows=1;rowLines=0;fontStyle=1;align=center;resizeLast=1;" vertex="1" parent="1">
          <mxGeometry x="1190" y="100" width="180" height="160" as="geometry" />
        </mxCell>
        <mxCell id="9O_hsrOdtYKGC5B46HUJ-173" value="" style="shape=partialRectangle;collapsible=0;dropTarget=0;pointerEvents=0;fillColor=none;top=0;left=0;bottom=1;right=0;points=[[0,0.5],[1,0.5]];portConstraint=eastwest;" vertex="1" parent="9O_hsrOdtYKGC5B46HUJ-172">
          <mxGeometry y="30" width="180" height="30" as="geometry" />
        </mxCell>
        <mxCell id="9O_hsrOdtYKGC5B46HUJ-174" value="PK" style="shape=partialRectangle;connectable=0;fillColor=none;top=0;left=0;bottom=0;right=0;fontStyle=1;overflow=hidden;" vertex="1" parent="9O_hsrOdtYKGC5B46HUJ-173">
          <mxGeometry width="30" height="30" as="geometry" />
        </mxCell>
        <mxCell id="9O_hsrOdtYKGC5B46HUJ-175" value="id" style="shape=partialRectangle;connectable=0;fillColor=none;top=0;left=0;bottom=0;right=0;align=left;spacingLeft=6;fontStyle=5;overflow=hidden;" vertex="1" parent="9O_hsrOdtYKGC5B46HUJ-173">
          <mxGeometry x="30" width="150" height="30" as="geometry" />
        </mxCell>
        <mxCell id="9O_hsrOdtYKGC5B46HUJ-176" value="" style="shape=partialRectangle;collapsible=0;dropTarget=0;pointerEvents=0;fillColor=none;top=0;left=0;bottom=0;right=0;points=[[0,0.5],[1,0.5]];portConstraint=eastwest;" vertex="1" parent="9O_hsrOdtYKGC5B46HUJ-172">
          <mxGeometry y="60" width="180" height="30" as="geometry" />
        </mxCell>
        <mxCell id="9O_hsrOdtYKGC5B46HUJ-177" value="" style="shape=partialRectangle;connectable=0;fillColor=none;top=0;left=0;bottom=0;right=0;editable=1;overflow=hidden;" vertex="1" parent="9O_hsrOdtYKGC5B46HUJ-176">
          <mxGeometry width="30" height="30" as="geometry" />
        </mxCell>
        <mxCell id="9O_hsrOdtYKGC5B46HUJ-178" value="名称" style="shape=partialRectangle;connectable=0;fillColor=none;top=0;left=0;bottom=0;right=0;align=left;spacingLeft=6;overflow=hidden;" vertex="1" parent="9O_hsrOdtYKGC5B46HUJ-176">
          <mxGeometry x="30" width="150" height="30" as="geometry" />
        </mxCell>
        <mxCell id="9O_hsrOdtYKGC5B46HUJ-179" value="" style="shape=partialRectangle;collapsible=0;dropTarget=0;pointerEvents=0;fillColor=none;top=0;left=0;bottom=0;right=0;points=[[0,0.5],[1,0.5]];portConstraint=eastwest;" vertex="1" parent="9O_hsrOdtYKGC5B46HUJ-172">
          <mxGeometry y="90" width="180" height="30" as="geometry" />
        </mxCell>
        <mxCell id="9O_hsrOdtYKGC5B46HUJ-180" value="" style="shape=partialRectangle;connectable=0;fillColor=none;top=0;left=0;bottom=0;right=0;editable=1;overflow=hidden;" vertex="1" parent="9O_hsrOdtYKGC5B46HUJ-179">
          <mxGeometry width="30" height="30" as="geometry" />
        </mxCell>
        <mxCell id="9O_hsrOdtYKGC5B46HUJ-181" value="编号" style="shape=partialRectangle;connectable=0;fillColor=none;top=0;left=0;bottom=0;right=0;align=left;spacingLeft=6;overflow=hidden;" vertex="1" parent="9O_hsrOdtYKGC5B46HUJ-179">
          <mxGeometry x="30" width="150" height="30" as="geometry" />
        </mxCell>
        <mxCell id="9O_hsrOdtYKGC5B46HUJ-182" value="" style="shape=partialRectangle;collapsible=0;dropTarget=0;pointerEvents=0;fillColor=none;top=0;left=0;bottom=0;right=0;points=[[0,0.5],[1,0.5]];portConstraint=eastwest;" vertex="1" parent="9O_hsrOdtYKGC5B46HUJ-172">
          <mxGeometry y="120" width="180" height="30" as="geometry" />
        </mxCell>
        <mxCell id="9O_hsrOdtYKGC5B46HUJ-183" value="" style="shape=partialRectangle;connectable=0;fillColor=none;top=0;left=0;bottom=0;right=0;editable=1;overflow=hidden;" vertex="1" parent="9O_hsrOdtYKGC5B46HUJ-182">
          <mxGeometry width="30" height="30" as="geometry" />
        </mxCell>
        <mxCell id="9O_hsrOdtYKGC5B46HUJ-184" value="..." style="shape=partialRectangle;connectable=0;fillColor=none;top=0;left=0;bottom=0;right=0;align=left;spacingLeft=6;overflow=hidden;" vertex="1" parent="9O_hsrOdtYKGC5B46HUJ-182">
          <mxGeometry x="30" width="150" height="30" as="geometry" />
        </mxCell>
        <mxCell id="9O_hsrOdtYKGC5B46HUJ-81" value="变电站表" style="shape=table;startSize=30;container=1;collapsible=1;childLayout=tableLayout;fixedRows=1;rowLines=0;fontStyle=1;align=center;resizeLast=1;" vertex="1" parent="1">
          <mxGeometry x="827" y="780" width="180" height="150" as="geometry" />
        </mxCell>
        <mxCell id="9O_hsrOdtYKGC5B46HUJ-82" value="" style="shape=partialRectangle;collapsible=0;dropTarget=0;pointerEvents=0;fillColor=none;top=0;left=0;bottom=1;right=0;points=[[0,0.5],[1,0.5]];portConstraint=eastwest;" vertex="1" parent="9O_hsrOdtYKGC5B46HUJ-81">
          <mxGeometry y="30" width="180" height="30" as="geometry" />
        </mxCell>
        <mxCell id="9O_hsrOdtYKGC5B46HUJ-83" value="PK" style="shape=partialRectangle;connectable=0;fillColor=none;top=0;left=0;bottom=0;right=0;fontStyle=1;overflow=hidden;" vertex="1" parent="9O_hsrOdtYKGC5B46HUJ-82">
          <mxGeometry width="30" height="30" as="geometry" />
        </mxCell>
        <mxCell id="9O_hsrOdtYKGC5B46HUJ-84" value="id" style="shape=partialRectangle;connectable=0;fillColor=none;top=0;left=0;bottom=0;right=0;align=left;spacingLeft=6;fontStyle=5;overflow=hidden;" vertex="1" parent="9O_hsrOdtYKGC5B46HUJ-82">
          <mxGeometry x="30" width="150" height="30" as="geometry" />
        </mxCell>
        <mxCell id="9O_hsrOdtYKGC5B46HUJ-85" value="" style="shape=partialRectangle;collapsible=0;dropTarget=0;pointerEvents=0;fillColor=none;top=0;left=0;bottom=0;right=0;points=[[0,0.5],[1,0.5]];portConstraint=eastwest;" vertex="1" parent="9O_hsrOdtYKGC5B46HUJ-81">
          <mxGeometry y="60" width="180" height="30" as="geometry" />
        </mxCell>
        <mxCell id="9O_hsrOdtYKGC5B46HUJ-86" value="" style="shape=partialRectangle;connectable=0;fillColor=none;top=0;left=0;bottom=0;right=0;editable=1;overflow=hidden;" vertex="1" parent="9O_hsrOdtYKGC5B46HUJ-85">
          <mxGeometry width="30" height="30" as="geometry" />
        </mxCell>
        <mxCell id="9O_hsrOdtYKGC5B46HUJ-87" value="名称" style="shape=partialRectangle;connectable=0;fillColor=none;top=0;left=0;bottom=0;right=0;align=left;spacingLeft=6;overflow=hidden;" vertex="1" parent="9O_hsrOdtYKGC5B46HUJ-85">
          <mxGeometry x="30" width="150" height="30" as="geometry" />
        </mxCell>
        <mxCell id="9O_hsrOdtYKGC5B46HUJ-88" value="" style="shape=partialRectangle;collapsible=0;dropTarget=0;pointerEvents=0;fillColor=none;top=0;left=0;bottom=0;right=0;points=[[0,0.5],[1,0.5]];portConstraint=eastwest;" vertex="1" parent="9O_hsrOdtYKGC5B46HUJ-81">
          <mxGeometry y="90" width="180" height="30" as="geometry" />
        </mxCell>
        <mxCell id="9O_hsrOdtYKGC5B46HUJ-89" value="" style="shape=partialRectangle;connectable=0;fillColor=none;top=0;left=0;bottom=0;right=0;editable=1;overflow=hidden;" vertex="1" parent="9O_hsrOdtYKGC5B46HUJ-88">
          <mxGeometry width="30" height="30" as="geometry" />
        </mxCell>
        <mxCell id="9O_hsrOdtYKGC5B46HUJ-90" value="位置" style="shape=partialRectangle;connectable=0;fillColor=none;top=0;left=0;bottom=0;right=0;align=left;spacingLeft=6;overflow=hidden;" vertex="1" parent="9O_hsrOdtYKGC5B46HUJ-88">
          <mxGeometry x="30" width="150" height="30" as="geometry" />
        </mxCell>
        <mxCell id="9O_hsrOdtYKGC5B46HUJ-91" value="" style="shape=partialRectangle;collapsible=0;dropTarget=0;pointerEvents=0;fillColor=none;top=0;left=0;bottom=0;right=0;points=[[0,0.5],[1,0.5]];portConstraint=eastwest;" vertex="1" parent="9O_hsrOdtYKGC5B46HUJ-81">
          <mxGeometry y="120" width="180" height="30" as="geometry" />
        </mxCell>
        <mxCell id="9O_hsrOdtYKGC5B46HUJ-92" value="" style="shape=partialRectangle;connectable=0;fillColor=none;top=0;left=0;bottom=0;right=0;editable=1;overflow=hidden;" vertex="1" parent="9O_hsrOdtYKGC5B46HUJ-91">
          <mxGeometry width="30" height="30" as="geometry" />
        </mxCell>
        <mxCell id="9O_hsrOdtYKGC5B46HUJ-93" value="..." style="shape=partialRectangle;connectable=0;fillColor=none;top=0;left=0;bottom=0;right=0;align=left;spacingLeft=6;overflow=hidden;" vertex="1" parent="9O_hsrOdtYKGC5B46HUJ-91">
          <mxGeometry x="30" width="150" height="30" as="geometry" />
        </mxCell>
        <mxCell id="9O_hsrOdtYKGC5B46HUJ-94" value="用户和权限关系表" style="shape=table;startSize=30;container=1;collapsible=1;childLayout=tableLayout;fixedRows=1;rowLines=0;fontStyle=1;align=center;resizeLast=1;" vertex="1" parent="1">
          <mxGeometry x="1190" y="775" width="180" height="150" as="geometry" />
        </mxCell>
        <mxCell id="9O_hsrOdtYKGC5B46HUJ-95" value="" style="shape=partialRectangle;collapsible=0;dropTarget=0;pointerEvents=0;fillColor=none;top=0;left=0;bottom=1;right=0;points=[[0,0.5],[1,0.5]];portConstraint=eastwest;" vertex="1" parent="9O_hsrOdtYKGC5B46HUJ-94">
          <mxGeometry y="30" width="180" height="30" as="geometry" />
        </mxCell>
        <mxCell id="9O_hsrOdtYKGC5B46HUJ-96" value="PK" style="shape=partialRectangle;connectable=0;fillColor=none;top=0;left=0;bottom=0;right=0;fontStyle=1;overflow=hidden;" vertex="1" parent="9O_hsrOdtYKGC5B46HUJ-95">
          <mxGeometry width="30" height="30" as="geometry" />
        </mxCell>
        <mxCell id="9O_hsrOdtYKGC5B46HUJ-97" value="id" style="shape=partialRectangle;connectable=0;fillColor=none;top=0;left=0;bottom=0;right=0;align=left;spacingLeft=6;fontStyle=5;overflow=hidden;" vertex="1" parent="9O_hsrOdtYKGC5B46HUJ-95">
          <mxGeometry x="30" width="150" height="30" as="geometry" />
        </mxCell>
        <mxCell id="9O_hsrOdtYKGC5B46HUJ-98" value="" style="shape=partialRectangle;collapsible=0;dropTarget=0;pointerEvents=0;fillColor=none;top=0;left=0;bottom=0;right=0;points=[[0,0.5],[1,0.5]];portConstraint=eastwest;" vertex="1" parent="9O_hsrOdtYKGC5B46HUJ-94">
          <mxGeometry y="60" width="180" height="30" as="geometry" />
        </mxCell>
        <mxCell id="9O_hsrOdtYKGC5B46HUJ-99" value="" style="shape=partialRectangle;connectable=0;fillColor=none;top=0;left=0;bottom=0;right=0;editable=1;overflow=hidden;" vertex="1" parent="9O_hsrOdtYKGC5B46HUJ-98">
          <mxGeometry width="30" height="30" as="geometry" />
        </mxCell>
        <mxCell id="9O_hsrOdtYKGC5B46HUJ-100" value="用户id" style="shape=partialRectangle;connectable=0;fillColor=none;top=0;left=0;bottom=0;right=0;align=left;spacingLeft=6;overflow=hidden;" vertex="1" parent="9O_hsrOdtYKGC5B46HUJ-98">
          <mxGeometry x="30" width="150" height="30" as="geometry" />
        </mxCell>
        <mxCell id="9O_hsrOdtYKGC5B46HUJ-101" value="" style="shape=partialRectangle;collapsible=0;dropTarget=0;pointerEvents=0;fillColor=none;top=0;left=0;bottom=0;right=0;points=[[0,0.5],[1,0.5]];portConstraint=eastwest;" vertex="1" parent="9O_hsrOdtYKGC5B46HUJ-94">
          <mxGeometry y="90" width="180" height="30" as="geometry" />
        </mxCell>
        <mxCell id="9O_hsrOdtYKGC5B46HUJ-102" value="FK" style="shape=partialRectangle;connectable=0;fillColor=none;top=0;left=0;bottom=0;right=0;editable=1;overflow=hidden;" vertex="1" parent="9O_hsrOdtYKGC5B46HUJ-101">
          <mxGeometry width="30" height="30" as="geometry" />
        </mxCell>
        <mxCell id="9O_hsrOdtYKGC5B46HUJ-103" value="权限id" style="shape=partialRectangle;connectable=0;fillColor=none;top=0;left=0;bottom=0;right=0;align=left;spacingLeft=6;overflow=hidden;" vertex="1" parent="9O_hsrOdtYKGC5B46HUJ-101">
          <mxGeometry x="30" width="150" height="30" as="geometry" />
        </mxCell>
        <mxCell id="9O_hsrOdtYKGC5B46HUJ-104" value="" style="shape=partialRectangle;collapsible=0;dropTarget=0;pointerEvents=0;fillColor=none;top=0;left=0;bottom=0;right=0;points=[[0,0.5],[1,0.5]];portConstraint=eastwest;" vertex="1" parent="9O_hsrOdtYKGC5B46HUJ-94">
          <mxGeometry y="120" width="180" height="30" as="geometry" />
        </mxCell>
        <mxCell id="9O_hsrOdtYKGC5B46HUJ-105" value="" style="shape=partialRectangle;connectable=0;fillColor=none;top=0;left=0;bottom=0;right=0;editable=1;overflow=hidden;" vertex="1" parent="9O_hsrOdtYKGC5B46HUJ-104">
          <mxGeometry width="30" height="30" as="geometry" />
        </mxCell>
        <mxCell id="9O_hsrOdtYKGC5B46HUJ-106" value="..." style="shape=partialRectangle;connectable=0;fillColor=none;top=0;left=0;bottom=0;right=0;align=left;spacingLeft=6;overflow=hidden;" vertex="1" parent="9O_hsrOdtYKGC5B46HUJ-104">
          <mxGeometry x="30" width="150" height="30" as="geometry" />
        </mxCell>
        <mxCell id="9O_hsrOdtYKGC5B46HUJ-52" value="权限表" style="shape=table;startSize=30;container=1;collapsible=1;childLayout=tableLayout;fixedRows=1;rowLines=0;fontStyle=1;align=center;resizeLast=1;" vertex="1" parent="1">
          <mxGeometry x="1490" y="770" width="180" height="160" as="geometry" />
        </mxCell>
        <mxCell id="9O_hsrOdtYKGC5B46HUJ-53" value="" style="shape=partialRectangle;collapsible=0;dropTarget=0;pointerEvents=0;fillColor=none;top=0;left=0;bottom=1;right=0;points=[[0,0.5],[1,0.5]];portConstraint=eastwest;" vertex="1" parent="9O_hsrOdtYKGC5B46HUJ-52">
          <mxGeometry y="30" width="180" height="30" as="geometry" />
        </mxCell>
        <mxCell id="9O_hsrOdtYKGC5B46HUJ-54" value="PK" style="shape=partialRectangle;connectable=0;fillColor=none;top=0;left=0;bottom=0;right=0;fontStyle=1;overflow=hidden;" vertex="1" parent="9O_hsrOdtYKGC5B46HUJ-53">
          <mxGeometry width="30" height="30" as="geometry" />
        </mxCell>
        <mxCell id="9O_hsrOdtYKGC5B46HUJ-55" value="id" style="shape=partialRectangle;connectable=0;fillColor=none;top=0;left=0;bottom=0;right=0;align=left;spacingLeft=6;fontStyle=5;overflow=hidden;" vertex="1" parent="9O_hsrOdtYKGC5B46HUJ-53">
          <mxGeometry x="30" width="150" height="30" as="geometry" />
        </mxCell>
        <mxCell id="9O_hsrOdtYKGC5B46HUJ-56" value="" style="shape=partialRectangle;collapsible=0;dropTarget=0;pointerEvents=0;fillColor=none;top=0;left=0;bottom=0;right=0;points=[[0,0.5],[1,0.5]];portConstraint=eastwest;" vertex="1" parent="9O_hsrOdtYKGC5B46HUJ-52">
          <mxGeometry y="60" width="180" height="30" as="geometry" />
        </mxCell>
        <mxCell id="9O_hsrOdtYKGC5B46HUJ-57" value="" style="shape=partialRectangle;connectable=0;fillColor=none;top=0;left=0;bottom=0;right=0;editable=1;overflow=hidden;" vertex="1" parent="9O_hsrOdtYKGC5B46HUJ-56">
          <mxGeometry width="30" height="30" as="geometry" />
        </mxCell>
        <mxCell id="9O_hsrOdtYKGC5B46HUJ-58" value="名称" style="shape=partialRectangle;connectable=0;fillColor=none;top=0;left=0;bottom=0;right=0;align=left;spacingLeft=6;overflow=hidden;" vertex="1" parent="9O_hsrOdtYKGC5B46HUJ-56">
          <mxGeometry x="30" width="150" height="30" as="geometry" />
        </mxCell>
        <mxCell id="9O_hsrOdtYKGC5B46HUJ-59" value="" style="shape=partialRectangle;collapsible=0;dropTarget=0;pointerEvents=0;fillColor=none;top=0;left=0;bottom=0;right=0;points=[[0,0.5],[1,0.5]];portConstraint=eastwest;" vertex="1" parent="9O_hsrOdtYKGC5B46HUJ-52">
          <mxGeometry y="90" width="180" height="30" as="geometry" />
        </mxCell>
        <mxCell id="9O_hsrOdtYKGC5B46HUJ-60" value="" style="shape=partialRectangle;connectable=0;fillColor=none;top=0;left=0;bottom=0;right=0;editable=1;overflow=hidden;" vertex="1" parent="9O_hsrOdtYKGC5B46HUJ-59">
          <mxGeometry width="30" height="30" as="geometry" />
        </mxCell>
        <mxCell id="9O_hsrOdtYKGC5B46HUJ-61" value="显示名称" style="shape=partialRectangle;connectable=0;fillColor=none;top=0;left=0;bottom=0;right=0;align=left;spacingLeft=6;overflow=hidden;" vertex="1" parent="9O_hsrOdtYKGC5B46HUJ-59">
          <mxGeometry x="30" width="150" height="30" as="geometry" />
        </mxCell>
        <mxCell id="9O_hsrOdtYKGC5B46HUJ-62" value="" style="shape=partialRectangle;collapsible=0;dropTarget=0;pointerEvents=0;fillColor=none;top=0;left=0;bottom=0;right=0;points=[[0,0.5],[1,0.5]];portConstraint=eastwest;" vertex="1" parent="9O_hsrOdtYKGC5B46HUJ-52">
          <mxGeometry y="120" width="180" height="30" as="geometry" />
        </mxCell>
        <mxCell id="9O_hsrOdtYKGC5B46HUJ-63" value="" style="shape=partialRectangle;connectable=0;fillColor=none;top=0;left=0;bottom=0;right=0;editable=1;overflow=hidden;" vertex="1" parent="9O_hsrOdtYKGC5B46HUJ-62">
          <mxGeometry width="30" height="30" as="geometry" />
        </mxCell>
        <mxCell id="9O_hsrOdtYKGC5B46HUJ-64" value="..." style="shape=partialRectangle;connectable=0;fillColor=none;top=0;left=0;bottom=0;right=0;align=left;spacingLeft=6;overflow=hidden;" vertex="1" parent="9O_hsrOdtYKGC5B46HUJ-62">
          <mxGeometry x="30" width="150" height="30" as="geometry" />
        </mxCell>
        <mxCell id="9O_hsrOdtYKGC5B46HUJ-107" value="角色和权限关系表" style="shape=table;startSize=30;container=1;collapsible=1;childLayout=tableLayout;fixedRows=1;rowLines=0;fontStyle=1;align=center;resizeLast=1;" vertex="1" parent="1">
          <mxGeometry x="1750" y="650" width="180" height="150" as="geometry" />
        </mxCell>
        <mxCell id="9O_hsrOdtYKGC5B46HUJ-108" value="" style="shape=partialRectangle;collapsible=0;dropTarget=0;pointerEvents=0;fillColor=none;top=0;left=0;bottom=1;right=0;points=[[0,0.5],[1,0.5]];portConstraint=eastwest;" vertex="1" parent="9O_hsrOdtYKGC5B46HUJ-107">
          <mxGeometry y="30" width="180" height="30" as="geometry" />
        </mxCell>
        <mxCell id="9O_hsrOdtYKGC5B46HUJ-109" value="PK" style="shape=partialRectangle;connectable=0;fillColor=none;top=0;left=0;bottom=0;right=0;fontStyle=1;overflow=hidden;" vertex="1" parent="9O_hsrOdtYKGC5B46HUJ-108">
          <mxGeometry width="30" height="30" as="geometry" />
        </mxCell>
        <mxCell id="9O_hsrOdtYKGC5B46HUJ-110" value="id" style="shape=partialRectangle;connectable=0;fillColor=none;top=0;left=0;bottom=0;right=0;align=left;spacingLeft=6;fontStyle=5;overflow=hidden;" vertex="1" parent="9O_hsrOdtYKGC5B46HUJ-108">
          <mxGeometry x="30" width="150" height="30" as="geometry" />
        </mxCell>
        <mxCell id="9O_hsrOdtYKGC5B46HUJ-111" value="" style="shape=partialRectangle;collapsible=0;dropTarget=0;pointerEvents=0;fillColor=none;top=0;left=0;bottom=0;right=0;points=[[0,0.5],[1,0.5]];portConstraint=eastwest;" vertex="1" parent="9O_hsrOdtYKGC5B46HUJ-107">
          <mxGeometry y="60" width="180" height="30" as="geometry" />
        </mxCell>
        <mxCell id="9O_hsrOdtYKGC5B46HUJ-112" value="" style="shape=partialRectangle;connectable=0;fillColor=none;top=0;left=0;bottom=0;right=0;editable=1;overflow=hidden;" vertex="1" parent="9O_hsrOdtYKGC5B46HUJ-111">
          <mxGeometry width="30" height="30" as="geometry" />
        </mxCell>
        <mxCell id="9O_hsrOdtYKGC5B46HUJ-113" value="角色id" style="shape=partialRectangle;connectable=0;fillColor=none;top=0;left=0;bottom=0;right=0;align=left;spacingLeft=6;overflow=hidden;" vertex="1" parent="9O_hsrOdtYKGC5B46HUJ-111">
          <mxGeometry x="30" width="150" height="30" as="geometry" />
        </mxCell>
        <mxCell id="9O_hsrOdtYKGC5B46HUJ-114" value="" style="shape=partialRectangle;collapsible=0;dropTarget=0;pointerEvents=0;fillColor=none;top=0;left=0;bottom=0;right=0;points=[[0,0.5],[1,0.5]];portConstraint=eastwest;" vertex="1" parent="9O_hsrOdtYKGC5B46HUJ-107">
          <mxGeometry y="90" width="180" height="30" as="geometry" />
        </mxCell>
        <mxCell id="9O_hsrOdtYKGC5B46HUJ-115" value="FK" style="shape=partialRectangle;connectable=0;fillColor=none;top=0;left=0;bottom=0;right=0;editable=1;overflow=hidden;" vertex="1" parent="9O_hsrOdtYKGC5B46HUJ-114">
          <mxGeometry width="30" height="30" as="geometry" />
        </mxCell>
        <mxCell id="9O_hsrOdtYKGC5B46HUJ-116" value="权限id" style="shape=partialRectangle;connectable=0;fillColor=none;top=0;left=0;bottom=0;right=0;align=left;spacingLeft=6;overflow=hidden;" vertex="1" parent="9O_hsrOdtYKGC5B46HUJ-114">
          <mxGeometry x="30" width="150" height="30" as="geometry" />
        </mxCell>
        <mxCell id="9O_hsrOdtYKGC5B46HUJ-117" value="" style="shape=partialRectangle;collapsible=0;dropTarget=0;pointerEvents=0;fillColor=none;top=0;left=0;bottom=0;right=0;points=[[0,0.5],[1,0.5]];portConstraint=eastwest;" vertex="1" parent="9O_hsrOdtYKGC5B46HUJ-107">
          <mxGeometry y="120" width="180" height="30" as="geometry" />
        </mxCell>
        <mxCell id="9O_hsrOdtYKGC5B46HUJ-118" value="" style="shape=partialRectangle;connectable=0;fillColor=none;top=0;left=0;bottom=0;right=0;editable=1;overflow=hidden;" vertex="1" parent="9O_hsrOdtYKGC5B46HUJ-117">
          <mxGeometry width="30" height="30" as="geometry" />
        </mxCell>
        <mxCell id="9O_hsrOdtYKGC5B46HUJ-119" value="..." style="shape=partialRectangle;connectable=0;fillColor=none;top=0;left=0;bottom=0;right=0;align=left;spacingLeft=6;overflow=hidden;" vertex="1" parent="9O_hsrOdtYKGC5B46HUJ-117">
          <mxGeometry x="30" width="150" height="30" as="geometry" />
        </mxCell>
        <mxCell id="9O_hsrOdtYKGC5B46HUJ-65" value="集控中心表" style="shape=table;startSize=30;container=1;collapsible=1;childLayout=tableLayout;fixedRows=1;rowLines=0;fontStyle=1;align=center;resizeLast=1;" vertex="1" parent="1">
          <mxGeometry x="490" y="530" width="180" height="150" as="geometry" />
        </mxCell>
        <mxCell id="9O_hsrOdtYKGC5B46HUJ-66" value="" style="shape=partialRectangle;collapsible=0;dropTarget=0;pointerEvents=0;fillColor=none;top=0;left=0;bottom=1;right=0;points=[[0,0.5],[1,0.5]];portConstraint=eastwest;" vertex="1" parent="9O_hsrOdtYKGC5B46HUJ-65">
          <mxGeometry y="30" width="180" height="30" as="geometry" />
        </mxCell>
        <mxCell id="9O_hsrOdtYKGC5B46HUJ-67" value="PK" style="shape=partialRectangle;connectable=0;fillColor=none;top=0;left=0;bottom=0;right=0;fontStyle=1;overflow=hidden;" vertex="1" parent="9O_hsrOdtYKGC5B46HUJ-66">
          <mxGeometry width="30" height="30" as="geometry" />
        </mxCell>
        <mxCell id="9O_hsrOdtYKGC5B46HUJ-68" value="id" style="shape=partialRectangle;connectable=0;fillColor=none;top=0;left=0;bottom=0;right=0;align=left;spacingLeft=6;fontStyle=5;overflow=hidden;" vertex="1" parent="9O_hsrOdtYKGC5B46HUJ-66">
          <mxGeometry x="30" width="150" height="30" as="geometry" />
        </mxCell>
        <mxCell id="9O_hsrOdtYKGC5B46HUJ-69" value="" style="shape=partialRectangle;collapsible=0;dropTarget=0;pointerEvents=0;fillColor=none;top=0;left=0;bottom=0;right=0;points=[[0,0.5],[1,0.5]];portConstraint=eastwest;" vertex="1" parent="9O_hsrOdtYKGC5B46HUJ-65">
          <mxGeometry y="60" width="180" height="30" as="geometry" />
        </mxCell>
        <mxCell id="9O_hsrOdtYKGC5B46HUJ-70" value="" style="shape=partialRectangle;connectable=0;fillColor=none;top=0;left=0;bottom=0;right=0;editable=1;overflow=hidden;" vertex="1" parent="9O_hsrOdtYKGC5B46HUJ-69">
          <mxGeometry width="30" height="30" as="geometry" />
        </mxCell>
        <mxCell id="9O_hsrOdtYKGC5B46HUJ-71" value="名称" style="shape=partialRectangle;connectable=0;fillColor=none;top=0;left=0;bottom=0;right=0;align=left;spacingLeft=6;overflow=hidden;" vertex="1" parent="9O_hsrOdtYKGC5B46HUJ-69">
          <mxGeometry x="30" width="150" height="30" as="geometry" />
        </mxCell>
        <mxCell id="9O_hsrOdtYKGC5B46HUJ-72" value="" style="shape=partialRectangle;collapsible=0;dropTarget=0;pointerEvents=0;fillColor=none;top=0;left=0;bottom=0;right=0;points=[[0,0.5],[1,0.5]];portConstraint=eastwest;" vertex="1" parent="9O_hsrOdtYKGC5B46HUJ-65">
          <mxGeometry y="90" width="180" height="30" as="geometry" />
        </mxCell>
        <mxCell id="9O_hsrOdtYKGC5B46HUJ-73" value="" style="shape=partialRectangle;connectable=0;fillColor=none;top=0;left=0;bottom=0;right=0;editable=1;overflow=hidden;" vertex="1" parent="9O_hsrOdtYKGC5B46HUJ-72">
          <mxGeometry width="30" height="30" as="geometry" />
        </mxCell>
        <mxCell id="9O_hsrOdtYKGC5B46HUJ-74" value="位置" style="shape=partialRectangle;connectable=0;fillColor=none;top=0;left=0;bottom=0;right=0;align=left;spacingLeft=6;overflow=hidden;" vertex="1" parent="9O_hsrOdtYKGC5B46HUJ-72">
          <mxGeometry x="30" width="150" height="30" as="geometry" />
        </mxCell>
        <mxCell id="9O_hsrOdtYKGC5B46HUJ-75" value="" style="shape=partialRectangle;collapsible=0;dropTarget=0;pointerEvents=0;fillColor=none;top=0;left=0;bottom=0;right=0;points=[[0,0.5],[1,0.5]];portConstraint=eastwest;" vertex="1" parent="9O_hsrOdtYKGC5B46HUJ-65">
          <mxGeometry y="120" width="180" height="30" as="geometry" />
        </mxCell>
        <mxCell id="9O_hsrOdtYKGC5B46HUJ-76" value="" style="shape=partialRectangle;connectable=0;fillColor=none;top=0;left=0;bottom=0;right=0;editable=1;overflow=hidden;" vertex="1" parent="9O_hsrOdtYKGC5B46HUJ-75">
          <mxGeometry width="30" height="30" as="geometry" />
        </mxCell>
        <mxCell id="9O_hsrOdtYKGC5B46HUJ-77" value="..." style="shape=partialRectangle;connectable=0;fillColor=none;top=0;left=0;bottom=0;right=0;align=left;spacingLeft=6;overflow=hidden;" vertex="1" parent="9O_hsrOdtYKGC5B46HUJ-75">
          <mxGeometry x="30" width="150" height="30" as="geometry" />
        </mxCell>
        <mxCell id="9O_hsrOdtYKGC5B46HUJ-120" value="集控中心和变电站关系表" style="shape=table;startSize=30;container=1;collapsible=1;childLayout=tableLayout;fixedRows=1;rowLines=0;fontStyle=1;align=center;resizeLast=1;" vertex="1" parent="1">
          <mxGeometry x="480" y="780" width="180" height="150" as="geometry" />
        </mxCell>
        <mxCell id="9O_hsrOdtYKGC5B46HUJ-121" value="" style="shape=partialRectangle;collapsible=0;dropTarget=0;pointerEvents=0;fillColor=none;top=0;left=0;bottom=1;right=0;points=[[0,0.5],[1,0.5]];portConstraint=eastwest;" vertex="1" parent="9O_hsrOdtYKGC5B46HUJ-120">
          <mxGeometry y="30" width="180" height="30" as="geometry" />
        </mxCell>
        <mxCell id="9O_hsrOdtYKGC5B46HUJ-122" value="PK" style="shape=partialRectangle;connectable=0;fillColor=none;top=0;left=0;bottom=0;right=0;fontStyle=1;overflow=hidden;" vertex="1" parent="9O_hsrOdtYKGC5B46HUJ-121">
          <mxGeometry width="30" height="30" as="geometry" />
        </mxCell>
        <mxCell id="9O_hsrOdtYKGC5B46HUJ-123" value="id" style="shape=partialRectangle;connectable=0;fillColor=none;top=0;left=0;bottom=0;right=0;align=left;spacingLeft=6;fontStyle=5;overflow=hidden;" vertex="1" parent="9O_hsrOdtYKGC5B46HUJ-121">
          <mxGeometry x="30" width="150" height="30" as="geometry" />
        </mxCell>
        <mxCell id="9O_hsrOdtYKGC5B46HUJ-124" value="" style="shape=partialRectangle;collapsible=0;dropTarget=0;pointerEvents=0;fillColor=none;top=0;left=0;bottom=0;right=0;points=[[0,0.5],[1,0.5]];portConstraint=eastwest;" vertex="1" parent="9O_hsrOdtYKGC5B46HUJ-120">
          <mxGeometry y="60" width="180" height="30" as="geometry" />
        </mxCell>
        <mxCell id="9O_hsrOdtYKGC5B46HUJ-125" value="" style="shape=partialRectangle;connectable=0;fillColor=none;top=0;left=0;bottom=0;right=0;editable=1;overflow=hidden;" vertex="1" parent="9O_hsrOdtYKGC5B46HUJ-124">
          <mxGeometry width="30" height="30" as="geometry" />
        </mxCell>
        <mxCell id="9O_hsrOdtYKGC5B46HUJ-126" value="集控中心id" style="shape=partialRectangle;connectable=0;fillColor=none;top=0;left=0;bottom=0;right=0;align=left;spacingLeft=6;overflow=hidden;" vertex="1" parent="9O_hsrOdtYKGC5B46HUJ-124">
          <mxGeometry x="30" width="150" height="30" as="geometry" />
        </mxCell>
        <mxCell id="9O_hsrOdtYKGC5B46HUJ-127" value="" style="shape=partialRectangle;collapsible=0;dropTarget=0;pointerEvents=0;fillColor=none;top=0;left=0;bottom=0;right=0;points=[[0,0.5],[1,0.5]];portConstraint=eastwest;" vertex="1" parent="9O_hsrOdtYKGC5B46HUJ-120">
          <mxGeometry y="90" width="180" height="30" as="geometry" />
        </mxCell>
        <mxCell id="9O_hsrOdtYKGC5B46HUJ-128" value="FK" style="shape=partialRectangle;connectable=0;fillColor=none;top=0;left=0;bottom=0;right=0;editable=1;overflow=hidden;" vertex="1" parent="9O_hsrOdtYKGC5B46HUJ-127">
          <mxGeometry width="30" height="30" as="geometry" />
        </mxCell>
        <mxCell id="9O_hsrOdtYKGC5B46HUJ-129" value="变电站id" style="shape=partialRectangle;connectable=0;fillColor=none;top=0;left=0;bottom=0;right=0;align=left;spacingLeft=6;overflow=hidden;" vertex="1" parent="9O_hsrOdtYKGC5B46HUJ-127">
          <mxGeometry x="30" width="150" height="30" as="geometry" />
        </mxCell>
        <mxCell id="9O_hsrOdtYKGC5B46HUJ-130" value="" style="shape=partialRectangle;collapsible=0;dropTarget=0;pointerEvents=0;fillColor=none;top=0;left=0;bottom=0;right=0;points=[[0,0.5],[1,0.5]];portConstraint=eastwest;" vertex="1" parent="9O_hsrOdtYKGC5B46HUJ-120">
          <mxGeometry y="120" width="180" height="30" as="geometry" />
        </mxCell>
        <mxCell id="9O_hsrOdtYKGC5B46HUJ-131" value="" style="shape=partialRectangle;connectable=0;fillColor=none;top=0;left=0;bottom=0;right=0;editable=1;overflow=hidden;" vertex="1" parent="9O_hsrOdtYKGC5B46HUJ-130">
          <mxGeometry width="30" height="30" as="geometry" />
        </mxCell>
        <mxCell id="9O_hsrOdtYKGC5B46HUJ-132" value="..." style="shape=partialRectangle;connectable=0;fillColor=none;top=0;left=0;bottom=0;right=0;align=left;spacingLeft=6;overflow=hidden;" vertex="1" parent="9O_hsrOdtYKGC5B46HUJ-130">
          <mxGeometry x="30" width="150" height="30" as="geometry" />
        </mxCell>
      </root>
    </mxGraphModel>
  </diagram>
</mxfile>
